<?xml version="1.0" encoding="UTF-8"?>
<svg xmlns="http://www.w3.org/2000/svg" xmlns:xlink="http://www.w3.org/1999/xlink" width="512pt" height="512pt" viewBox="0 0 512 512" version="1.1">
<g id="surface977533">
<path style=" stroke:none;fill-rule:nonzero;fill:rgb(100%,100%,100%);fill-opacity:1;" d="M 224 87.601562 C 173.199219 87.601562 132 128.800781 132 179.601562 C 132 186.402344 137.199219 191.601562 144 191.601562 L 165.601562 191.601562 C 211.601562 191.601562 258.398438 191.601562 292 161.601562 L 292 162 C 293.601562 160.398438 295.199219 159.203125 296.398438 157.601562 C 300.796875 152.800781 308.402344 152 313.203125 156.398438 C 318.402344 160.796875 318.800781 168.800781 314 174 L 308.398438 179.601562 C 303.199219 184.800781 305.199219 193.597656 312 196.398438 C 316 198 320.398438 198.804688 324.796875 199.203125 C 330.796875 200.003906 335.601562 204.804688 335.601562 211.203125 L 335.601562 238.398438 C 336 280.398438 304 316.800781 261.601562 320 C 215.203125 323.199219 176.398438 286.398438 176 240.398438 C 176 234 171.195312 228.398438 164.796875 228 C 157.996094 227.601562 152 233.199219 152 240 C 152 297.199219 198.800781 344 256 344 C 311.601562 344 357.199219 300.402344 360 245.203125 L 360 172 C 360 143.199219 338.398438 119.597656 310.398438 116.398438 L 308.796875 114 C 297.195312 97.601562 278 87.601562 258 87.601562 Z M 256 364 C 190.398438 364 129.601562 399.597656 97.203125 456.398438 C 94.003906 462 96 469.597656 101.601562 472.796875 C 103.601562 473.996094 105.601562 474.398438 107.601562 474.398438 C 111.601562 474.398438 116 472.398438 118 468.398438 C 146.398438 418.796875 199.199219 388 256 388 C 312.800781 388 365.601562 418.796875 394 468.398438 C 397.199219 474 404.796875 475.996094 410.398438 472.796875 C 416 469.597656 417.996094 462 414.796875 456.398438 C 382.398438 399.597656 321.601562 364 256 364 Z M 256 364 "/>
</g>
</svg>
